<svg width="93" height="189" viewBox="0 0 93 189" fill="none" xmlns="http://www.w3.org/2000/svg">
<path d="M29.4792 135.424C29.4792 137.856 29.2258 139.731 28.7192 141.048C28.3138 142.365 27.7565 143.379 27.0472 144.088C26.4392 144.797 25.6792 145.203 24.7672 145.304C23.9565 145.507 23.1458 145.608 22.3352 145.608C19.5992 145.608 17.7752 145 16.8632 143.784C16.0525 142.568 15.4952 139.832 15.1912 135.576C14.9885 133.347 14.8365 130.104 14.7352 125.848C14.6338 121.592 14.5325 116.525 14.4312 110.648C14.4312 104.771 14.3805 98.2853 14.2792 91.192C14.2792 84.0987 14.2792 76.6 14.2792 68.696C14.2792 64.9467 14.7352 61.1467 15.6472 57.296C16.5592 53.4453 18.2818 49.9493 20.8152 46.808C23.4498 43.6667 27.0472 41.1333 31.6072 39.208C36.2685 37.2827 42.2978 36.32 49.6952 36.32C54.8632 36.32 59.7778 36.8773 64.4392 37.992C69.1005 39.1067 73.2045 41.032 76.7512 43.768C80.2979 46.504 83.1352 50.152 85.2632 54.712C87.3912 59.272 88.4552 64.9467 88.4552 71.736C88.4552 78.8293 87.2899 84.7067 84.9592 89.368C82.6285 94.0293 79.3352 97.728 75.0792 100.464C70.8232 103.2 65.7565 105.125 59.8792 106.24C54.0018 107.355 47.5672 107.912 40.5752 107.912C38.8525 107.912 37.1298 107.912 35.4072 107.912C33.6845 107.912 31.7592 107.811 29.6312 107.608L29.4792 135.424ZM73.2552 71.432C73.2552 64.6427 71.3298 59.5253 67.4792 56.08C63.7299 52.6347 57.4472 50.912 48.6312 50.912C45.2872 50.912 42.3992 51.216 39.9672 51.824C37.6365 52.3307 35.7112 53.2933 34.1912 54.712C32.6712 56.0293 31.5058 57.8533 30.6952 60.184C29.9858 62.5147 29.6312 65.4533 29.6312 69C29.6312 72.4453 29.6312 76.3973 29.6312 80.856C29.6312 85.2133 29.6818 89.3173 29.7832 93.168C32.1138 93.2693 34.6978 93.32 37.5352 93.32C40.4738 93.32 43.2098 93.32 45.7432 93.32C48.7832 93.32 51.9245 93.1173 55.1672 92.712C58.5112 92.3067 61.5005 91.3947 64.1352 89.976C66.7699 88.456 68.9485 86.2773 70.6712 83.44C72.3938 80.5013 73.2552 76.4987 73.2552 71.432Z" fill="url(#paint0_linear)"/>
<path opacity="0.3" d="M27.3591 135.424C27.3591 137.856 27.1057 139.731 26.5991 141.048C26.1937 142.365 25.6364 143.379 24.9271 144.088C24.3191 144.797 23.5591 145.203 22.6471 145.304C21.8364 145.507 21.0257 145.608 20.2151 145.608C17.4791 145.608 15.6551 145 14.7431 143.784C13.9324 142.568 13.3751 139.832 13.0711 135.576C12.8684 133.347 12.7164 130.104 12.6151 125.848C12.5137 121.592 12.4124 116.525 12.3111 110.648C12.3111 104.771 12.2604 98.2853 12.1591 91.192C12.1591 84.0987 12.1591 76.6 12.1591 68.696C12.1591 64.9467 12.6151 61.1467 13.5271 57.296C14.4391 53.4453 16.1617 49.9493 18.6951 46.808C21.3297 43.6667 24.9271 41.1333 29.4871 39.208C34.1484 37.2827 40.1777 36.32 47.5751 36.32C52.7431 36.32 57.6577 36.8773 62.3191 37.992C66.9804 39.1067 71.0844 41.032 74.6311 43.768C78.1777 46.504 81.0151 50.152 83.1431 54.712C85.2711 59.272 86.3351 64.9467 86.3351 71.736C86.3351 78.8293 85.1697 84.7067 82.8391 89.368C80.5084 94.0293 77.2151 97.728 72.9591 100.464C68.7031 103.2 63.6364 105.125 57.7591 106.24C51.8817 107.355 45.4471 107.912 38.4551 107.912C36.7324 107.912 35.0097 107.912 33.2871 107.912C31.5644 107.912 29.6391 107.811 27.5111 107.608L27.3591 135.424ZM71.1351 71.432C71.1351 64.6427 69.2097 59.5253 65.3591 56.08C61.6097 52.6347 55.3271 50.912 46.5111 50.912C43.1671 50.912 40.2791 51.216 37.8471 51.824C35.5164 52.3307 33.5911 53.2933 32.0711 54.712C30.5511 56.0293 29.3857 57.8533 28.5751 60.184C27.8657 62.5147 27.5111 65.4533 27.5111 69C27.5111 72.4453 27.5111 76.3973 27.5111 80.856C27.5111 85.2133 27.5617 89.3173 27.6631 93.168C29.9937 93.2693 32.5777 93.32 35.4151 93.32C38.3537 93.32 41.0897 93.32 43.6231 93.32C46.6631 93.32 49.8044 93.1173 53.0471 92.712C56.3911 92.3067 59.3804 91.3947 62.0151 89.976C64.6497 88.456 66.8284 86.2773 68.5511 83.44C70.2737 80.5013 71.1351 76.4987 71.1351 71.432Z" fill="url(#paint1_linear)"/>
<path opacity="0.2" d="M25.861 135.424C25.861 137.856 25.6077 139.731 25.101 141.048C24.6957 142.365 24.1384 143.379 23.429 144.088C22.821 144.797 22.061 145.203 21.149 145.304C20.3384 145.507 19.5277 145.608 18.717 145.608C15.981 145.608 14.157 145 13.245 143.784C12.4343 142.568 11.877 139.832 11.573 135.576C11.3703 133.347 11.2183 130.104 11.117 125.848C11.0157 121.592 10.9143 116.525 10.813 110.648C10.813 104.771 10.7623 98.2853 10.661 91.192C10.661 84.0987 10.661 76.6 10.661 68.696C10.661 64.9467 11.117 61.1467 12.029 57.296C12.941 53.4453 14.6637 49.9493 17.197 46.808C19.8317 43.6667 23.429 41.1333 27.989 39.208C32.6504 37.2827 38.6797 36.32 46.077 36.32C51.245 36.32 56.1597 36.8773 60.821 37.992C65.4824 39.1067 69.5864 41.032 73.133 43.768C76.6797 46.504 79.517 50.152 81.645 54.712C83.773 59.272 84.837 64.9467 84.837 71.736C84.837 78.8293 83.6717 84.7067 81.341 89.368C79.0104 94.0293 75.717 97.728 71.461 100.464C67.205 103.2 62.1384 105.125 56.261 106.24C50.3837 107.355 43.949 107.912 36.957 107.912C35.2344 107.912 33.5117 107.912 31.789 107.912C30.0664 107.912 28.141 107.811 26.013 107.608L25.861 135.424ZM69.637 71.432C69.637 64.6427 67.7117 59.5253 63.861 56.08C60.1117 52.6347 53.829 50.912 45.013 50.912C41.669 50.912 38.781 51.216 36.349 51.824C34.0184 52.3307 32.093 53.2933 30.573 54.712C29.053 56.0293 27.8877 57.8533 27.077 60.184C26.3677 62.5147 26.013 65.4533 26.013 69C26.013 72.4453 26.013 76.3973 26.013 80.856C26.013 85.2133 26.0637 89.3173 26.165 93.168C28.4957 93.2693 31.0797 93.32 33.917 93.32C36.8557 93.32 39.5917 93.32 42.125 93.32C45.165 93.32 48.3064 93.1173 51.549 92.712C54.893 92.3067 57.8824 91.3947 60.517 89.976C63.1517 88.456 65.3304 86.2773 67.053 83.44C68.7757 80.5013 69.637 76.4987 69.637 71.432Z" fill="url(#paint2_linear)"/>
<path opacity="0.1" d="M24.6823 135.424C24.6823 137.856 24.429 139.731 23.9223 141.048C23.517 142.365 22.9596 143.379 22.2503 144.088C21.6423 144.797 20.8823 145.203 19.9703 145.304C19.1596 145.507 18.349 145.608 17.5383 145.608C14.8023 145.608 12.9783 145 12.0663 143.784C11.2556 142.568 10.6983 139.832 10.3943 135.576C10.1916 133.347 10.0396 130.104 9.9383 125.848C9.83697 121.592 9.73564 116.525 9.63431 110.648C9.63431 104.771 9.58364 98.2853 9.48231 91.192C9.48231 84.0987 9.48231 76.6 9.48231 68.696C9.48231 64.9467 9.93831 61.1467 10.8503 57.296C11.7623 53.4453 13.485 49.9493 16.0183 46.808C18.653 43.6667 22.2503 41.1333 26.8103 39.208C31.4716 37.2827 37.501 36.32 44.8983 36.32C50.0663 36.32 54.981 36.8773 59.6423 37.992C64.3036 39.1067 68.4076 41.032 71.9543 43.768C75.501 46.504 78.3383 50.152 80.4663 54.712C82.5943 59.272 83.6583 64.9467 83.6583 71.736C83.6583 78.8293 82.493 84.7067 80.1623 89.368C77.8316 94.0293 74.5383 97.728 70.2823 100.464C66.0263 103.2 60.9596 105.125 55.0823 106.24C49.205 107.355 42.7703 107.912 35.7783 107.912C34.0556 107.912 32.333 107.912 30.6103 107.912C28.8876 107.912 26.9623 107.811 24.8343 107.608L24.6823 135.424ZM68.4583 71.432C68.4583 64.6427 66.533 59.5253 62.6823 56.08C58.933 52.6347 52.6503 50.912 43.8343 50.912C40.4903 50.912 37.6023 51.216 35.1703 51.824C32.8396 52.3307 30.9143 53.2933 29.3943 54.712C27.8743 56.0293 26.709 57.8533 25.8983 60.184C25.189 62.5147 24.8343 65.4533 24.8343 69C24.8343 72.4453 24.8343 76.3973 24.8343 80.856C24.8343 85.2133 24.885 89.3173 24.9863 93.168C27.317 93.2693 29.901 93.32 32.7383 93.32C35.677 93.32 38.413 93.32 40.9463 93.32C43.9863 93.32 47.1276 93.1173 50.3703 92.712C53.7143 92.3067 56.7036 91.3947 59.3383 89.976C61.973 88.456 64.1516 86.2773 65.8743 83.44C67.597 80.5013 68.4583 76.4987 68.4583 71.432Z" fill="url(#paint3_linear)"/>
<defs>
<linearGradient id="paint0_linear" x1="48.6592" y1="27" x2="48.6592" y2="148.5" gradientUnits="userSpaceOnUse">
<stop stop-color="#E3036F"/>
<stop offset="1" stop-color="#13A9E0"/>
</linearGradient>
<linearGradient id="paint1_linear" x1="46.5391" y1="27" x2="46.5391" y2="148.5" gradientUnits="userSpaceOnUse">
<stop stop-color="#E3036F"/>
<stop offset="1" stop-color="#13A9E0"/>
</linearGradient>
<linearGradient id="paint2_linear" x1="45.041" y1="27" x2="45.041" y2="148.5" gradientUnits="userSpaceOnUse">
<stop stop-color="#E3036F"/>
<stop offset="1" stop-color="#13A9E0"/>
</linearGradient>
<linearGradient id="paint3_linear" x1="43.8623" y1="27" x2="43.8623" y2="148.5" gradientUnits="userSpaceOnUse">
<stop stop-color="#E3036F"/>
<stop offset="1" stop-color="#13A9E0"/>
</linearGradient>
</defs>
</svg>
